<svg width="21" height="24" viewBox="0 0 21 24" fill="none" xmlns="http://www.w3.org/2000/svg">
<path d="M16.8834 12.7504C16.9171 16.3824 20.0695 17.591 20.1045 17.6065C20.0778 17.6917 19.6008 19.3289 18.4436 21.0199C17.4433 22.482 16.4051 23.9386 14.7696 23.9688C13.1626 23.9984 12.6459 23.0159 10.8087 23.0159C8.97195 23.0159 8.39783 23.9386 6.87663 23.9984C5.298 24.0582 4.09589 22.4174 3.08726 20.9608C1.02626 17.9811 -0.548768 12.5409 1.5661 8.86873C2.61672 7.0451 4.49426 5.8903 6.53216 5.86069C8.08234 5.83112 9.54552 6.9036 10.4932 6.9036C11.4402 6.9036 13.2183 5.61385 15.0875 5.80327C15.87 5.83584 18.0666 6.11936 19.477 8.18392C19.3634 8.25437 16.8561 9.71399 16.8834 12.7504M13.8632 3.83196C14.7013 2.81747 15.2654 1.4052 15.1115 0C13.9034 0.0485534 12.4426 0.805022 11.5761 1.81896C10.7995 2.71684 10.1194 4.15397 10.3029 5.53135C11.6495 5.63553 13.025 4.8471 13.8632 3.83196" fill="black"/>
</svg>
