<svg width="25" height="24" viewBox="0 0 25 24" fill="none" xmlns="http://www.w3.org/2000/svg">
<path d="M24.4282 12.2668C24.4282 11.2801 24.3481 10.5601 24.1749 9.81348H12.9082V14.2668H19.5215C19.3882 15.3735 18.6682 17.0401 17.0682 18.1601L17.0457 18.3092L20.6081 21.0688L20.8549 21.0935C23.1215 19.0001 24.4282 15.9201 24.4282 12.2668Z" fill="#4285F4"/>
<path d="M12.9075 23.9997C16.1475 23.9997 18.8675 22.933 20.8542 21.093L17.0675 18.1596C16.0542 18.8663 14.6942 19.3596 12.9075 19.3596C9.73422 19.3596 7.0409 17.2664 6.08081 14.373L5.94008 14.385L2.23594 17.2517L2.1875 17.3863C4.16081 21.3063 8.21416 23.9997 12.9075 23.9997Z" fill="#34A853"/>
<path d="M6.08149 14.3731C5.82816 13.6265 5.68155 12.8264 5.68155 11.9998C5.68155 11.1731 5.82816 10.3731 6.06816 9.62643L6.06145 9.46741L2.31088 6.55469L2.18817 6.61306C1.37487 8.23974 0.908203 10.0664 0.908203 11.9998C0.908203 13.9331 1.37487 15.7597 2.18817 17.3864L6.08149 14.3731Z" fill="#FBBC05"/>
<path d="M12.9075 4.63997C15.1608 4.63997 16.6808 5.6133 17.5475 6.42669L20.9342 3.12C18.8542 1.18667 16.1475 0 12.9075 0C8.21416 0 4.16081 2.69331 2.1875 6.61328L6.06748 9.62666C7.0409 6.73333 9.73422 4.63997 12.9075 4.63997Z" fill="#EB4335"/>
</svg>
